<?xml version="1.0" encoding="UTF-8"?>
<svg version="1.1" xmlns="http://www.w3.org/2000/svg" width="512" height="512">
<path d="M0 0 C5.88220048 3.50190325 10.57472749 8.96233861 12.625 15.5 C13.47674467 23.2350301 13.30082168 30.07649415 8.625 36.5 C4.32486103 41.6362771 -0.7618273 46.0087157 -7.53515625 46.9296875 C-9.73084613 47.0557317 -11.92976627 47.13714524 -14.12890625 47.1640625 C-21.02931456 47.87818418 -26.99126563 51.83139846 -32.9375 55.1875 C-33.71528809 55.62304199 -34.49307617 56.05858398 -35.29443359 56.50732422 C-42.34519609 60.46284089 -49.36821364 64.46715512 -56.375 68.5 C-56.375 68.83 -56.375 69.16 -56.375 69.5 C-55.61807861 69.63986328 -54.86115723 69.77972656 -54.08129883 69.92382812 C-25.10111869 75.34141684 3.16864782 82.62714983 30.625 93.5 C31.3782959 93.78681641 32.1315918 94.07363281 32.90771484 94.36914062 C42.44646983 98.47472086 47.80544414 107.75027445 52.625 116.5 C53.13844971 117.42006836 53.65189941 118.34013672 54.1809082 119.28808594 C85.68434786 176.35874728 94.09956673 243.21366985 76.23828125 306.09765625 C75.70593913 307.90004667 75.16833256 309.70089214 74.625 311.5 C74.37411621 312.33515137 74.12323242 313.17030273 73.86474609 314.03076172 C67.63208205 334.26788118 58.19819766 353.77926877 46.625 371.5 C45.86509766 372.73943359 45.86509766 372.73943359 45.08984375 374.00390625 C38.06219145 384.63347505 23.04518173 387.44296901 11.625 391.5 C12.05167969 392.35335938 12.47835938 393.20671875 12.91796875 394.0859375 C22.77148438 413.79296875 22.77148438 413.79296875 32.625 433.5 C33.18276123 434.55106934 33.74052246 435.60213867 34.31518555 436.68505859 C35.81484749 439.90800402 35.81723653 441.19842192 34.625 444.5 C30.93479605 448.19020395 24.85893812 446.86962938 19.875 446.875 C18.69421875 446.89949219 17.5134375 446.92398437 16.296875 446.94921875 C15.1521875 446.95308594 14.0075 446.95695312 12.828125 446.9609375 C11.78301758 446.96915527 10.73791016 446.97737305 9.66113281 446.98583984 C3.4927524 445.99877993 -0.48053855 441.63545088 -4.7109375 437.32421875 C-5.19398346 436.83597122 -5.67702942 436.34772369 -6.17471313 435.84468079 C-7.70471831 434.29703631 -9.22782311 432.74284137 -10.75 431.1875 C-12.75431655 429.14626858 -14.76207589 427.10850846 -16.7734375 425.07421875 C-17.25671005 424.58472244 -17.7399826 424.09522614 -18.23789978 423.59089661 C-21.59193018 420.2192558 -25.05955577 417.04858865 -28.72241211 414.01708984 C-30.375 412.5 -30.375 412.5 -31.94750977 410.46337891 C-33.65930028 408.31607162 -34.98273735 406.86138351 -37.375 405.5 C-40.08825152 405.49140999 -40.08825152 405.49140999 -43.05859375 406.16015625 C-44.21560791 406.36970947 -45.37262207 406.5792627 -46.56469727 406.79516602 C-48.45079712 407.14405884 -48.45079712 407.14405884 -50.375 407.5 C-53.07725794 407.93045746 -55.78423601 408.32589504 -58.4921875 408.71875 C-59.20343277 408.82300797 -59.91467804 408.92726593 -60.6474762 409.03468323 C-62.11351381 409.2495756 -63.57965588 409.46375651 -65.04589844 409.67724609 C-66.49777395 409.88984904 -67.94928528 410.10495631 -69.40039062 410.32275391 C-92.39566048 413.769952 -115.1282392 414.87779235 -138.375 414.8125 C-139.73611439 414.81057638 -141.0972289 414.80873589 -142.45834351 414.80697632 C-161.91746021 414.77040848 -181.0921169 414.36626682 -200.375 411.5 C-201.78433396 411.29437539 -203.19367686 411.08881208 -204.60302734 410.88330078 C-212.79415947 409.67845283 -220.96892492 408.39102799 -229.13476562 407.02490234 C-230.20404297 406.85168457 -231.27332031 406.6784668 -232.375 406.5 C-233.59002197 406.2520166 -234.80504395 406.0040332 -236.05688477 405.74853516 C-239.28195617 405.19850156 -239.28195617 405.19850156 -241.41967773 406.65234375 C-242.23094116 407.53599609 -242.23094116 407.53599609 -243.05859375 408.4375 C-243.67669922 409.08589844 -244.29480469 409.73429687 -244.93164062 410.40234375 C-245.55232422 411.09457031 -246.17300781 411.78679687 -246.8125 412.5 C-248.05850892 413.83584656 -249.30721156 415.16918564 -250.55859375 416.5 C-251.18378906 417.17063477 -251.80898437 417.84126953 -252.453125 418.53222656 C-254.95164549 421.090417 -257.63564747 423.38182851 -260.35083008 425.70507812 C-264.65183344 429.5189699 -268.57610867 433.74182391 -272.55078125 437.890625 C-278.15341303 443.61246171 -282.11474409 446.54272623 -290.32421875 446.93359375 C-292.57024713 446.95077937 -294.81645019 446.95160996 -297.0625 446.9375 C-298.20267578 446.95748047 -299.34285156 446.97746094 -300.51757812 446.99804688 C-301.60876953 446.99740234 -302.69996094 446.99675781 -303.82421875 446.99609375 C-305.31441528 446.99887329 -305.31441528 446.99887329 -306.8347168 447.00170898 C-309.375 446.5 -309.375 446.5 -311.28442383 444.84399414 C-312.8267356 441.52907691 -312.39632417 440.01622131 -311.375 436.5 C-310.0648184 433.4520243 -308.55282349 430.52843571 -307.0078125 427.59375 C-306.57242157 426.75082397 -306.13703064 425.90789795 -305.68844604 425.03942871 C-304.30000546 422.35553887 -302.90028007 419.67772855 -301.5 417 C-300.56564 415.19961621 -299.63203822 413.39883871 -298.69921875 411.59765625 C-296.9827712 408.28461227 -295.26134249 404.97424914 -293.53564453 401.66601562 C-291.78031691 398.29445857 -290.06243134 394.90617444 -288.375 391.5 C-288.88804687 391.36464844 -289.40109375 391.22929687 -289.9296875 391.08984375 C-295.89921883 389.41154117 -301.74423118 387.38709261 -307.5625 385.25 C-308.32224121 384.98695068 -309.08198242 384.72390137 -309.86474609 384.45288086 C-319.2978803 380.9018372 -324.1827208 373.96522852 -329.125 365.5 C-329.63377686 364.63697266 -330.14255371 363.77394531 -330.66674805 362.88476562 C-340.12989115 346.53601198 -347.77525285 329.53696185 -353.375 311.5 C-353.60912598 310.75476074 -353.84325195 310.00952148 -354.08447266 309.24169922 C-372.88406635 248.47465902 -365.86251338 180.72408149 -336.375 124.5 C-333.23642303 118.71076016 -329.88660761 113.06977038 -326.375 107.5 C-325.49908203 106.08654297 -325.49908203 106.08654297 -324.60546875 104.64453125 C-320.15184004 98.17539173 -314.53621452 95.35239337 -307.375 92.5 C-306.65521973 92.20802734 -305.93543945 91.91605469 -305.19384766 91.61523438 C-274.02809903 79.16697588 -233.10037868 65.29552219 -199.375 66.5 C-199.10816406 65.76265625 -198.84132812 65.0253125 -198.56640625 64.265625 C-192.37129926 49.88485205 -178.12413756 40.08594525 -164.20703125 34.1484375 C-148.10656926 28.10804825 -128.88326212 28.40672853 -113.0078125 34.87109375 C-104.91118012 38.56507154 -98.6684327 43.20894524 -92.1171875 49.14453125 C-89.0325991 51.87337564 -89.0325991 51.87337564 -85.375 53.5 C-80.88868677 53.04462086 -77.68101417 51.83967809 -73.77734375 49.62109375 C-72.73408936 49.03328125 -71.69083496 48.44546875 -70.6159668 47.83984375 C-68.98075073 46.89818359 -68.98075073 46.89818359 -67.3125 45.9375 C-66.19593018 45.30070312 -65.07936035 44.66390625 -63.92895508 44.0078125 C-60.73854768 42.18166747 -57.55654181 40.34153023 -54.375 38.5 C-52.91153766 37.66782923 -51.44800963 36.83577395 -49.984375 36.00390625 C-48.29054688 35.01197266 -48.29054688 35.01197266 -46.5625 34 C-45.62792969 33.4534375 -44.69335938 32.906875 -43.73046875 32.34375 C-39.18149183 28.78302511 -37.08733606 24.55122303 -35.875 19 C-33.80309241 10.77920536 -29.20422109 4.57579414 -21.875 0.1875 C-15.24072344 -2.89090484 -6.70779443 -2.92324115 0 0 Z M-273.4375 142.25 C-297.60636402 171.47055281 -305.22870801 217.79617223 -301.87109375 254.41015625 C-298.8472504 283.30593881 -290.23256796 320.55008557 -267.2734375 340.30859375 C-221.76179483 373.58990899 -135.49838778 370.07578331 -83.27490234 362.12548828 C-67.71190108 359.62940657 -52.4655489 356.03945995 -37.375 351.5 C-36.34334717 351.19223633 -35.31169434 350.88447266 -34.2487793 350.56738281 C-16.57637156 345.01373192 -5.05261032 336.92374586 3.6875 320.50390625 C24.71988953 280.11879719 30.0194951 231.57106017 16.40673828 187.89794922 C9.91565086 167.98681222 2.25367532 144.54796585 -16.70703125 133.25 C-47.30090948 117.72712868 -87.11961173 112.42387199 -121.0625 110.9375 C-121.94099609 110.89431641 -122.81949219 110.85113281 -123.72460938 110.80664062 C-166.60874121 108.8699379 -241.16070369 110.03686601 -273.4375 142.25 Z " fill="#0071FF" transform="translate(395.375,33.5)"/>
<path d="M0 0 C2.84814453 1.4519043 2.84814453 1.4519043 5.6328125 3.32421875 C6.67687256 4.01668701 7.72093262 4.70915527 8.79663086 5.42260742 C9.90644725 6.1770423 11.01589605 6.93201815 12.125 7.6875 C13.27349913 8.4584384 14.42267752 9.22836578 15.57250977 9.99731445 C17.32768042 11.17225656 19.08166161 12.34877684 20.83198547 13.53092957 C24.61219588 16.08338271 28.42581983 18.57481196 32.26953125 21.03125 C33.22907715 21.65040283 34.18862305 22.26955566 35.17724609 22.9074707 C36.9747892 24.06666819 38.77825601 25.21674731 40.58837891 26.35620117 C45.17738371 29.35352413 48.21024476 31.57831466 50 37 C50 41.12084531 49.69479472 43.19449576 46.98364258 46.33764648 C43.29721414 49.62710742 39.37738973 52.31404997 35.26171875 55.03515625 C34.00232231 55.87595985 34.00232231 55.87595985 32.71748352 56.73374939 C30.94673728 57.9139215 29.17408772 59.09124225 27.3996582 60.26586914 C24.70193185 62.05293983 22.01173911 63.85093041 19.32226562 65.65039062 C17.59418997 66.80014071 15.86568804 67.94925043 14.13671875 69.09765625 C13.34061691 69.6300441 12.54451508 70.16243195 11.72428894 70.71095276 C-0.78251558 78.96241552 -0.78251558 78.96241552 -6.6875 79.0625 C-10.74106379 77.76230029 -12.31526578 76.28399867 -15 73 C-15.63491821 69.85083008 -15.63491821 69.85083008 -15.64697266 66.26953125 C-15.65573425 65.61358978 -15.66449585 64.95764832 -15.67352295 64.28182983 C-15.6954376 62.12470331 -15.68099611 59.96964544 -15.6640625 57.8125 C-15.66743301 56.30704354 -15.67228759 54.80158975 -15.67855835 53.29614258 C-15.68591879 50.14540628 -15.67525218 46.99538012 -15.65185547 43.84472656 C-15.62336664 39.81254045 -15.63977528 35.78201829 -15.66971779 31.74989319 C-15.6878141 28.64249202 -15.68202239 25.53548327 -15.66907883 22.42807007 C-15.66575118 20.94176027 -15.66980938 19.45541446 -15.68147659 17.96914673 C-15.69422574 15.88863227 -15.67476003 13.8107852 -15.64697266 11.73046875 C-15.64299469 10.54864014 -15.63901672 9.36681152 -15.63491821 8.14916992 C-14.81224568 4.06874582 -13.19400049 2.58439376 -10 0 C-6.19476631 -1.26841123 -3.9119509 -0.8222655 0 0 Z " fill="#0071FF" transform="translate(239,233)"/>
<path d="M0 0 C7.12542718 3.36516351 12.09598274 9.25986052 15.48046875 16.27734375 C16.28461516 19.06062719 16.95229309 21.82168651 17.51171875 24.6640625 C19.90275813 31.11408406 26.11285799 34.08009583 31.79296875 37.27734375 C40.65854241 42.34791313 40.65854241 42.34791313 44.9609375 44.96484375 C45.61344482 45.36058594 46.26595215 45.75632813 46.93823242 46.1640625 C48.48046875 47.27734375 48.48046875 47.27734375 49.48046875 49.27734375 C49.85578235 53.25566794 49.91120576 55.5484042 47.85546875 59.02734375 C43.07949015 63.55195505 38.38792471 65.17466879 31.8671875 65.0234375 C24.07474989 63.30676439 17.25397142 58.34427945 10.48046875 54.27734375 C2.87956998 49.84201651 -2.73126127 47.87677901 -11.546875 47.51953125 C-19.48529983 46.8727739 -23.80129099 42.38289783 -28.85546875 36.59375 C-33.37776408 30.29862997 -33.22882042 23.77944072 -32.51953125 16.27734375 C-30.60933358 8.91461981 -24.90948525 4.09141683 -18.69140625 0.10546875 C-13.10644006 -2.02405073 -5.68282471 -1.62995747 0 0 Z " fill="#0071FF" transform="translate(136.51953125,32.72265625)"/>
</svg>
